<mxfile host="app.diagrams.net" modified="2023-07-13T07:50:08.343Z" agent="Mozilla/5.0 (Windows NT 10.0; Win64; x64) AppleWebKit/537.36 (KHTML, like Gecko) Chrome/114.0.0.0 Safari/537.36" etag="KEZcXAtNsTf1RPpaYMsY" version="21.5.0" type="github">
  <diagram name="第 1 页" id="3zp0N2sMeUjkROlY4g_E">
    <mxGraphModel dx="1330" dy="624" grid="1" gridSize="10" guides="1" tooltips="1" connect="1" arrows="1" fold="1" page="1" pageScale="1" pageWidth="827" pageHeight="1169" math="0" shadow="0">
      <root>
        <mxCell id="0" />
        <mxCell id="1" parent="0" />
        <mxCell id="gxt9Xrvfip5MAkFBjTN--1" value="&lt;font style=&quot;font-size: 16px;&quot;&gt;X&lt;/font&gt;" style="text;html=1;strokeColor=none;fillColor=none;align=center;verticalAlign=middle;whiteSpace=wrap;rounded=0;" parent="1" vertex="1">
          <mxGeometry x="45" y="110" width="50" height="20" as="geometry" />
        </mxCell>
        <mxCell id="gxt9Xrvfip5MAkFBjTN--2" value="(N-1) x 6" style="text;html=1;strokeColor=none;fillColor=none;align=center;verticalAlign=middle;whiteSpace=wrap;rounded=0;" parent="1" vertex="1">
          <mxGeometry x="40" y="80" width="60" height="30" as="geometry" />
        </mxCell>
        <mxCell id="gxt9Xrvfip5MAkFBjTN--3" value="&lt;font style=&quot;font-size: 16px;&quot;&gt;Z&lt;sub&gt;0&lt;/sub&gt;&lt;/font&gt;" style="text;html=1;strokeColor=none;fillColor=none;align=center;verticalAlign=middle;whiteSpace=wrap;rounded=0;" parent="1" vertex="1">
          <mxGeometry x="140" y="110" width="30" height="20" as="geometry" />
        </mxCell>
        <mxCell id="gxt9Xrvfip5MAkFBjTN--4" value="" style="endArrow=classic;html=1;rounded=0;exitX=0.8;exitY=0.5;exitDx=0;exitDy=0;exitPerimeter=0;entryX=0;entryY=0.5;entryDx=0;entryDy=0;" parent="1" source="gxt9Xrvfip5MAkFBjTN--1" target="gxt9Xrvfip5MAkFBjTN--3" edge="1">
          <mxGeometry width="50" height="50" relative="1" as="geometry">
            <mxPoint x="5" y="250" as="sourcePoint" />
            <mxPoint x="130" y="120" as="targetPoint" />
          </mxGeometry>
        </mxCell>
        <mxCell id="gxt9Xrvfip5MAkFBjTN--5" value="" style="endArrow=classic;html=1;rounded=0;exitX=1;exitY=0.5;exitDx=0;exitDy=0;" parent="1" source="gxt9Xrvfip5MAkFBjTN--3" edge="1">
          <mxGeometry width="50" height="50" relative="1" as="geometry">
            <mxPoint x="300" y="260" as="sourcePoint" />
            <mxPoint x="570" y="120" as="targetPoint" />
          </mxGeometry>
        </mxCell>
        <mxCell id="gxt9Xrvfip5MAkFBjTN--6" value="&lt;font style=&quot;font-size: 16px;&quot;&gt;diffusion process&lt;/font&gt;" style="text;html=1;strokeColor=none;fillColor=none;align=center;verticalAlign=middle;whiteSpace=wrap;rounded=0;" parent="1" vertex="1">
          <mxGeometry x="340" y="90" width="140" height="30" as="geometry" />
        </mxCell>
        <mxCell id="gxt9Xrvfip5MAkFBjTN--7" value="&lt;font style=&quot;font-size: 16px;&quot;&gt;Z&lt;/font&gt;&lt;font style=&quot;font-size: 13.3333px;&quot;&gt;&lt;sub&gt;t&lt;/sub&gt;&lt;/font&gt;" style="text;html=1;strokeColor=none;fillColor=none;align=center;verticalAlign=middle;whiteSpace=wrap;rounded=0;" parent="1" vertex="1">
          <mxGeometry x="580" y="110" width="30" height="20" as="geometry" />
        </mxCell>
        <mxCell id="gxt9Xrvfip5MAkFBjTN--11" value="" style="edgeStyle=orthogonalEdgeStyle;rounded=0;orthogonalLoop=1;jettySize=auto;html=1;" parent="1" source="gxt9Xrvfip5MAkFBjTN--8" target="gxt9Xrvfip5MAkFBjTN--10" edge="1">
          <mxGeometry relative="1" as="geometry" />
        </mxCell>
        <mxCell id="gxt9Xrvfip5MAkFBjTN--8" value="&lt;font style=&quot;font-size: 16px;&quot;&gt;Pretrained&lt;br&gt;Model&lt;/font&gt;" style="rounded=0;whiteSpace=wrap;html=1;fillColor=#dae8fc;strokeColor=#6c8ebf;" parent="1" vertex="1">
          <mxGeometry x="140" y="170" width="105" height="60" as="geometry" />
        </mxCell>
        <mxCell id="gxt9Xrvfip5MAkFBjTN--9" value="" style="endArrow=classic;html=1;rounded=0;exitX=0.5;exitY=1;exitDx=0;exitDy=0;entryX=0;entryY=0.5;entryDx=0;entryDy=0;" parent="1" source="gxt9Xrvfip5MAkFBjTN--1" target="gxt9Xrvfip5MAkFBjTN--8" edge="1">
          <mxGeometry width="50" height="50" relative="1" as="geometry">
            <mxPoint x="80" y="330" as="sourcePoint" />
            <mxPoint x="130" y="280" as="targetPoint" />
            <Array as="points">
              <mxPoint x="70" y="200" />
            </Array>
          </mxGeometry>
        </mxCell>
        <mxCell id="gxt9Xrvfip5MAkFBjTN--10" value="&lt;font style=&quot;font-size: 16px;&quot;&gt;3Di&lt;/font&gt;" style="text;html=1;strokeColor=none;fillColor=none;align=center;verticalAlign=middle;whiteSpace=wrap;rounded=0;" parent="1" vertex="1">
          <mxGeometry x="290" y="190" width="40" height="20" as="geometry" />
        </mxCell>
        <mxCell id="gxt9Xrvfip5MAkFBjTN--12" value="" style="endArrow=none;dashed=1;html=1;dashPattern=1 3;strokeWidth=2;rounded=0;" parent="1" edge="1">
          <mxGeometry width="50" height="50" relative="1" as="geometry">
            <mxPoint x="660" y="440" as="sourcePoint" />
            <mxPoint x="660" y="50" as="targetPoint" />
          </mxGeometry>
        </mxCell>
        <mxCell id="gxt9Xrvfip5MAkFBjTN--17" value="" style="edgeStyle=orthogonalEdgeStyle;rounded=0;orthogonalLoop=1;jettySize=auto;html=1;" parent="1" source="gxt9Xrvfip5MAkFBjTN--13" target="gxt9Xrvfip5MAkFBjTN--16" edge="1">
          <mxGeometry relative="1" as="geometry" />
        </mxCell>
        <mxCell id="gxt9Xrvfip5MAkFBjTN--13" value="&lt;font style=&quot;font-size: 16px;&quot;&gt;Pretrained&lt;br&gt;VQ-VAE&lt;/font&gt;" style="rounded=0;whiteSpace=wrap;html=1;fillColor=#b0e3e6;strokeColor=#0e8088;" parent="1" vertex="1">
          <mxGeometry x="760" y="220" width="120" height="60" as="geometry" />
        </mxCell>
        <mxCell id="gxt9Xrvfip5MAkFBjTN--15" value="" style="edgeStyle=orthogonalEdgeStyle;rounded=0;orthogonalLoop=1;jettySize=auto;html=1;" parent="1" source="gxt9Xrvfip5MAkFBjTN--14" target="gxt9Xrvfip5MAkFBjTN--13" edge="1">
          <mxGeometry relative="1" as="geometry" />
        </mxCell>
        <mxCell id="gxt9Xrvfip5MAkFBjTN--14" value="&lt;font style=&quot;font-size: 12px;&quot;&gt;(1) Reparameterized random samples&amp;nbsp; for unlimited protein structures generation&lt;br&gt;(2)&amp;nbsp;&lt;span style=&quot;background-color: initial;&quot;&gt;given protein structure samples for functionally similar family proteins generation&lt;/span&gt;&lt;/font&gt;" style="text;html=1;strokeColor=none;fillColor=none;align=left;verticalAlign=middle;whiteSpace=wrap;rounded=0;" parent="1" vertex="1">
          <mxGeometry x="690" y="90" width="260" height="70" as="geometry" />
        </mxCell>
        <mxCell id="gxt9Xrvfip5MAkFBjTN--16" value="&lt;font style=&quot;font-size: 16px;&quot;&gt;The structure condition&lt;/font&gt;" style="text;html=1;strokeColor=none;fillColor=none;align=center;verticalAlign=middle;whiteSpace=wrap;rounded=0;" parent="1" vertex="1">
          <mxGeometry x="735" y="350" width="170" height="30" as="geometry" />
        </mxCell>
        <mxCell id="gxt9Xrvfip5MAkFBjTN--18" value="" style="rounded=0;whiteSpace=wrap;html=1;fillColor=#fff2cc;strokeColor=#d6b656;" parent="1" vertex="1">
          <mxGeometry x="290" y="340" width="260" height="100" as="geometry" />
        </mxCell>
        <mxCell id="gxt9Xrvfip5MAkFBjTN--19" value="&lt;font style=&quot;font-size: 16px;&quot;&gt;D&lt;/font&gt;" style="shape=trapezoid;perimeter=trapezoidPerimeter;whiteSpace=wrap;html=1;fixedSize=1;direction=south;fillColor=#ffe6cc;strokeColor=#d79b00;" parent="1" vertex="1">
          <mxGeometry x="300" y="350" width="60" height="80" as="geometry" />
        </mxCell>
        <mxCell id="gxt9Xrvfip5MAkFBjTN--20" value="&lt;font style=&quot;font-size: 16px;&quot;&gt;E&lt;/font&gt;" style="shape=trapezoid;perimeter=trapezoidPerimeter;whiteSpace=wrap;html=1;fixedSize=1;direction=north;fillColor=#ffe6cc;strokeColor=#d79b00;" parent="1" vertex="1">
          <mxGeometry x="440" y="350" width="60" height="80" as="geometry" />
        </mxCell>
        <mxCell id="gxt9Xrvfip5MAkFBjTN--21" value="Q&lt;br&gt;KV" style="rounded=0;whiteSpace=wrap;html=1;fillColor=#f8cecc;strokeColor=#b85450;" parent="1" vertex="1">
          <mxGeometry x="510" y="365" width="30" height="50" as="geometry" />
        </mxCell>
        <mxCell id="gxt9Xrvfip5MAkFBjTN--22" value="Q&lt;br&gt;KV" style="rounded=0;whiteSpace=wrap;html=1;fillColor=#f8cecc;strokeColor=#b85450;" parent="1" vertex="1">
          <mxGeometry x="370" y="365" width="30" height="50" as="geometry" />
        </mxCell>
        <mxCell id="gxt9Xrvfip5MAkFBjTN--23" value="&lt;font style=&quot;font-size: 16px;&quot;&gt;L&lt;/font&gt;" style="text;html=1;strokeColor=none;fillColor=none;align=center;verticalAlign=middle;whiteSpace=wrap;rounded=0;" parent="1" vertex="1">
          <mxGeometry x="405" y="375" width="30" height="30" as="geometry" />
        </mxCell>
        <mxCell id="gxt9Xrvfip5MAkFBjTN--24" value="" style="endArrow=classic;html=1;rounded=0;exitX=0.5;exitY=0;exitDx=0;exitDy=0;" parent="1" source="gxt9Xrvfip5MAkFBjTN--23" edge="1">
          <mxGeometry width="50" height="50" relative="1" as="geometry">
            <mxPoint x="320" y="330" as="sourcePoint" />
            <mxPoint x="420" y="300" as="targetPoint" />
            <Array as="points">
              <mxPoint x="420" y="320" />
            </Array>
          </mxGeometry>
        </mxCell>
        <mxCell id="gxt9Xrvfip5MAkFBjTN--25" value="&lt;font style=&quot;font-size: 16px;&quot;&gt;Pretrained&lt;/font&gt;&lt;br style=&quot;border-color: var(--border-color); font-size: 16px;&quot;&gt;&lt;span style=&quot;font-size: 16px;&quot;&gt;Model&lt;/span&gt;" style="rounded=0;whiteSpace=wrap;html=1;fillColor=#dae8fc;strokeColor=#6c8ebf;" parent="1" vertex="1">
          <mxGeometry x="370" y="250" width="100" height="50" as="geometry" />
        </mxCell>
        <mxCell id="gxt9Xrvfip5MAkFBjTN--26" value="&lt;font style=&quot;font-size: 16px;&quot;&gt;3Di&lt;/font&gt;" style="text;html=1;strokeColor=none;fillColor=none;align=center;verticalAlign=middle;whiteSpace=wrap;rounded=0;" parent="1" vertex="1">
          <mxGeometry x="435" y="190" width="40" height="20" as="geometry" />
        </mxCell>
        <mxCell id="gxt9Xrvfip5MAkFBjTN--27" value="" style="endArrow=classic;html=1;rounded=0;exitX=0.5;exitY=0;exitDx=0;exitDy=0;entryX=1;entryY=0.5;entryDx=0;entryDy=0;" parent="1" source="gxt9Xrvfip5MAkFBjTN--25" target="gxt9Xrvfip5MAkFBjTN--26" edge="1">
          <mxGeometry width="50" height="50" relative="1" as="geometry">
            <mxPoint x="130" y="370" as="sourcePoint" />
            <mxPoint x="530" y="160" as="targetPoint" />
            <Array as="points">
              <mxPoint x="420" y="230" />
              <mxPoint x="530" y="230" />
              <mxPoint x="530" y="200" />
            </Array>
          </mxGeometry>
        </mxCell>
        <mxCell id="gxt9Xrvfip5MAkFBjTN--28" value="" style="endArrow=classic;startArrow=classic;html=1;rounded=0;exitX=0;exitY=0.5;exitDx=0;exitDy=0;entryX=1;entryY=0.5;entryDx=0;entryDy=0;" parent="1" source="gxt9Xrvfip5MAkFBjTN--26" target="gxt9Xrvfip5MAkFBjTN--10" edge="1">
          <mxGeometry width="50" height="50" relative="1" as="geometry">
            <mxPoint x="210" y="330" as="sourcePoint" />
            <mxPoint x="260" y="280" as="targetPoint" />
          </mxGeometry>
        </mxCell>
        <mxCell id="gxt9Xrvfip5MAkFBjTN--29" value="&lt;font style=&quot;font-size: 14px;&quot;&gt;CELoss&lt;/font&gt;" style="text;html=1;strokeColor=none;fillColor=none;align=center;verticalAlign=middle;whiteSpace=wrap;rounded=0;" parent="1" vertex="1">
          <mxGeometry x="353.5" y="180" width="60" height="20" as="geometry" />
        </mxCell>
        <mxCell id="gxt9Xrvfip5MAkFBjTN--30" value="&lt;font style=&quot;font-size: 16px;&quot;&gt;Z&lt;/font&gt;&lt;font style=&quot;font-size: 13.3333px;&quot;&gt;&lt;sub&gt;t&lt;/sub&gt;&lt;/font&gt;" style="text;html=1;strokeColor=none;fillColor=none;align=center;verticalAlign=middle;whiteSpace=wrap;rounded=0;" parent="1" vertex="1">
          <mxGeometry x="580" y="380" width="30" height="20" as="geometry" />
        </mxCell>
        <mxCell id="gxt9Xrvfip5MAkFBjTN--32" value="" style="endArrow=classic;html=1;rounded=0;exitX=0;exitY=0.5;exitDx=0;exitDy=0;entryX=1;entryY=0.5;entryDx=0;entryDy=0;" parent="1" source="gxt9Xrvfip5MAkFBjTN--30" target="gxt9Xrvfip5MAkFBjTN--18" edge="1">
          <mxGeometry width="50" height="50" relative="1" as="geometry">
            <mxPoint x="600" y="520" as="sourcePoint" />
            <mxPoint x="650" y="470" as="targetPoint" />
          </mxGeometry>
        </mxCell>
        <mxCell id="gxt9Xrvfip5MAkFBjTN--33" value="&lt;font style=&quot;font-size: 16px;&quot;&gt;Z&lt;/font&gt;&lt;font style=&quot;font-size: 13.3333px;&quot;&gt;&lt;sub&gt;t-1&lt;/sub&gt;&lt;/font&gt;" style="text;html=1;strokeColor=none;fillColor=none;align=center;verticalAlign=middle;whiteSpace=wrap;rounded=0;" parent="1" vertex="1">
          <mxGeometry x="230" y="380" width="30" height="20" as="geometry" />
        </mxCell>
        <mxCell id="gxt9Xrvfip5MAkFBjTN--35" value="" style="endArrow=classic;html=1;rounded=0;exitX=0;exitY=0.5;exitDx=0;exitDy=0;entryX=1;entryY=0.5;entryDx=0;entryDy=0;" parent="1" source="gxt9Xrvfip5MAkFBjTN--18" target="gxt9Xrvfip5MAkFBjTN--33" edge="1">
          <mxGeometry width="50" height="50" relative="1" as="geometry">
            <mxPoint x="60" y="420" as="sourcePoint" />
            <mxPoint x="270" y="390" as="targetPoint" />
          </mxGeometry>
        </mxCell>
        <mxCell id="gxt9Xrvfip5MAkFBjTN--37" value="" style="endArrow=classic;html=1;rounded=0;exitX=0;exitY=0.5;exitDx=0;exitDy=0;entryX=1;entryY=0.5;entryDx=0;entryDy=0;" parent="1" source="gxt9Xrvfip5MAkFBjTN--33" target="gxt9Xrvfip5MAkFBjTN--39" edge="1">
          <mxGeometry width="50" height="50" relative="1" as="geometry">
            <mxPoint x="70" y="405" as="sourcePoint" />
            <mxPoint x="170" y="390" as="targetPoint" />
          </mxGeometry>
        </mxCell>
        <mxCell id="gxt9Xrvfip5MAkFBjTN--39" value="&lt;font style=&quot;font-size: 16px;&quot;&gt;Z&lt;sub&gt;0&lt;/sub&gt;&lt;/font&gt;" style="text;html=1;strokeColor=none;fillColor=none;align=center;verticalAlign=middle;whiteSpace=wrap;rounded=0;" parent="1" vertex="1">
          <mxGeometry x="140" y="380" width="30" height="20" as="geometry" />
        </mxCell>
        <mxCell id="gxt9Xrvfip5MAkFBjTN--41" value="&lt;font style=&quot;font-size: 16px;&quot;&gt;......&lt;/font&gt;" style="text;html=1;strokeColor=none;fillColor=none;align=center;verticalAlign=middle;whiteSpace=wrap;rounded=0;" parent="1" vertex="1">
          <mxGeometry x="170" y="365" width="60" height="30" as="geometry" />
        </mxCell>
        <mxCell id="gxt9Xrvfip5MAkFBjTN--42" value="&lt;font style=&quot;font-size: 16px;&quot;&gt;X&lt;/font&gt;" style="text;html=1;strokeColor=none;fillColor=none;align=center;verticalAlign=middle;whiteSpace=wrap;rounded=0;" parent="1" vertex="1">
          <mxGeometry x="50" y="385" width="50" height="20" as="geometry" />
        </mxCell>
        <mxCell id="gxt9Xrvfip5MAkFBjTN--43" value="(N-1) x 6" style="text;html=1;strokeColor=none;fillColor=none;align=center;verticalAlign=middle;whiteSpace=wrap;rounded=0;" parent="1" vertex="1">
          <mxGeometry x="45" y="355" width="60" height="30" as="geometry" />
        </mxCell>
        <mxCell id="gxt9Xrvfip5MAkFBjTN--45" value="" style="endArrow=classic;html=1;rounded=0;exitX=0;exitY=0.5;exitDx=0;exitDy=0;" parent="1" source="gxt9Xrvfip5MAkFBjTN--39" edge="1">
          <mxGeometry width="50" height="50" relative="1" as="geometry">
            <mxPoint x="100" y="490" as="sourcePoint" />
            <mxPoint x="90" y="390" as="targetPoint" />
          </mxGeometry>
        </mxCell>
        <mxCell id="gxt9Xrvfip5MAkFBjTN--46" value="" style="endArrow=classic;html=1;rounded=0;exitX=0.5;exitY=1;exitDx=0;exitDy=0;entryX=0.5;entryY=1;entryDx=0;entryDy=0;" parent="1" source="gxt9Xrvfip5MAkFBjTN--16" target="gxt9Xrvfip5MAkFBjTN--21" edge="1">
          <mxGeometry width="50" height="50" relative="1" as="geometry">
            <mxPoint x="490" y="570" as="sourcePoint" />
            <mxPoint x="540" y="520" as="targetPoint" />
            <Array as="points">
              <mxPoint x="820" y="460" />
              <mxPoint x="525" y="460" />
            </Array>
          </mxGeometry>
        </mxCell>
        <mxCell id="gxt9Xrvfip5MAkFBjTN--47" value="" style="endArrow=classic;html=1;rounded=0;entryX=0.5;entryY=1;entryDx=0;entryDy=0;" parent="1" target="gxt9Xrvfip5MAkFBjTN--22" edge="1">
          <mxGeometry width="50" height="50" relative="1" as="geometry">
            <mxPoint x="530" y="460" as="sourcePoint" />
            <mxPoint x="280" y="540" as="targetPoint" />
            <Array as="points">
              <mxPoint x="385" y="460" />
            </Array>
          </mxGeometry>
        </mxCell>
        <mxCell id="gxt9Xrvfip5MAkFBjTN--49" value="&lt;font style=&quot;font-size: 18px;&quot;&gt;L&lt;sub&gt;total&amp;nbsp;&lt;/sub&gt;= αL&lt;sub&gt;diff&amp;nbsp;&lt;/sub&gt;+ βCELoss&lt;/font&gt;" style="text;html=1;strokeColor=none;fillColor=none;align=center;verticalAlign=middle;whiteSpace=wrap;rounded=0;" parent="1" vertex="1">
          <mxGeometry x="80" y="280" width="210" height="30" as="geometry" />
        </mxCell>
      </root>
    </mxGraphModel>
  </diagram>
</mxfile>
